<?xml version="1.0" encoding="UTF-8"?>
<svg id="Calque_2" data-name="Calque 2" xmlns="http://www.w3.org/2000/svg" viewBox="0 0 511.38 295.92">
  <defs>
    <style>
      .cls-1 {
        fill: #336d5e;
      }
    </style>
  </defs>
  <g id="Calque_3" data-name="Calque 3">
    <path class="cls-1" d="M403.28,193.86c.08-.9.16-1.79.23-2.69v-.03s0,0,0,0c7.72-90.26-12.74-121.56-12.74-121.56-22.1,9.94-45.58,31.47-65.15,52.74C296.34,61.11,255.69,0,255.69,0c-24.56,33.63-49.29,84.08-67.71,125.66-20.85-22.44-46.13-45.69-69.19-56.06,0,0-18.77,31.54-10.46,122.57h0v.02c.06.62.12,1.24.18,1.87-4.1-1.97-55.72-25.71-108.51.13,0,0,7.51,50.6,52.84,97.43,2.69,2.78,6.24,4.3,9.9,4.3h385.89c3.66,0,7.21-1.51,9.9-4.3,45.33-46.84,52.84-97.43,52.84-97.43-51.42-25.17-101.74-3.29-108.1-.32ZM211.77,256.91c0,2.38-1.93,4.31-4.31,4.31h-16.42c-2.38,0-4.31-1.93-4.31-4.31v-16.42c0-2.38,1.93-4.31,4.31-4.31h16.42c2.38,0,4.31,1.93,4.31,4.31v16.42ZM242.62,256.82c0,2.38-1.93,4.31-4.31,4.31h-16.42c-2.38,0-4.31-1.93-4.31-4.31v-41.29c0-2.38,1.93-4.31,4.31-4.31h16.42c2.38,0,4.31,1.93,4.31,4.31v41.29ZM275.09,257.01c0,2.38-1.93,4.31-4.31,4.31h-16.42c-2.38,0-4.31-1.93-4.31-4.31v-66.34c0-2.38,1.93-4.31,4.31-4.31h16.42c2.38,0,4.31,1.93,4.31,4.31v66.34ZM307.44,257.01c0,2.38-1.93,4.31-4.31,4.31h-16.42c-2.38,0-4.31-1.93-4.31-4.31v-91.09c0-2.38,1.93-4.31,4.31-4.31h16.42c2.38,0,4.31,1.93,4.31,4.31v91.09Z"/>
  </g>
</svg>